<svg xmlns="http://www.w3.org/2000/svg" width="24" height="24" viewBox="0 0 24 24">
  <defs>
    <style>
      .cls-1 {
        fill-rule: evenodd;
      }
    </style>
  </defs>
  <path id="Color_Fill_1" data-name="Color Fill 1" class="cls-1" d="M6.19,0.043c2.063-.035,3.462.073,4.476,1a1.547,1.547,0,0,1-.048.7,1.328,1.328,0,0,1-.571.522A5.935,5.935,0,0,1,8.333,1.87,6.03,6.03,0,0,0,5.19,2.13a5.146,5.146,0,0,0-3,3.043A4.654,4.654,0,0,0,4,10.348a7.412,7.412,0,0,0,2.19.913,4.944,4.944,0,0,0,2.333-.13A5.05,5.05,0,0,0,12,8.522,8.9,8.9,0,0,0,12.476,6.7C12.63,6.047,12.282,5.51,12.9,5.3a1.892,1.892,0,0,1,1.048-.043,5.735,5.735,0,0,0,.809-0.739,16.67,16.67,0,0,1,2.762-2.348,5.218,5.218,0,0,1,1.191-.435,4.416,4.416,0,0,1,5.1,2.7,3.94,3.94,0,0,1-.476,3.217,11.566,11.566,0,0,1-1.809,1.739l-3.381,3.087a10.346,10.346,0,0,1-3.1,2.435,5.23,5.23,0,0,1-3.571-.174l0.048-.13,1.333-1.174a2.991,2.991,0,0,0,2-.391l4.1-3.783,1.9-1.739a5.4,5.4,0,0,0,.9-0.87,2.274,2.274,0,0,0-.191-2.435,2.719,2.719,0,0,0-2.952-.609,3.4,3.4,0,0,0-.9.739L14.333,7.391l-0.048.435A13.315,13.315,0,0,1,13.762,9.3a17.015,17.015,0,0,1-1.381,1.826h0.048a1.31,1.31,0,0,1,.619-0.3,4.778,4.778,0,0,1,3.619.087V11c-0.524.324-1,1.254-1.762,1.261a1.507,1.507,0,0,0-1,.13,5.549,5.549,0,0,0-1.857,1.391L8.238,17.261A11.543,11.543,0,0,0,6.381,19,2.22,2.22,0,0,0,6.9,21.87a2.965,2.965,0,0,0,2.9.043A10.643,10.643,0,0,0,11.143,20.7l2.81-2.565,1.857-1.7a5.8,5.8,0,0,0,.952-0.913,2.753,2.753,0,0,0,.286-1.652,10.382,10.382,0,0,1,1.476-1.261v0.043a1.664,1.664,0,0,1,.286.7,3.77,3.77,0,0,1-.619,3.348,12.43,12.43,0,0,1-1.524,1.391l-3.143,2.869a15.944,15.944,0,0,1-3.048,2.609,5.189,5.189,0,0,1-3.619.174c-1.891-.728-3.66-3.291-2.143-5.565a11.463,11.463,0,0,1,1.952-1.913L10,13.174a10.642,10.642,0,0,0,1.476-1.348H11.429a3.091,3.091,0,0,1-.857.478l-0.857.739A0.168,0.168,0,0,1,9.619,13c-0.124-.146-0.041-0.2-0.333-0.217a7.69,7.69,0,0,1-3.048.3c-0.316-.086-0.8-0.216-1.1-0.3a6.558,6.558,0,0,1-4.857-4.7A6,6,0,0,1,.1,5.609,7.063,7.063,0,0,1,3.762.783,7.457,7.457,0,0,1,5.333.217,2.816,2.816,0,0,0,6.19.043Zm6.9,1.13a3.509,3.509,0,0,1,.857.087l0.381,0.391V2.391A10.528,10.528,0,0,1,12.619,4L7.857,8.391a2.905,2.905,0,0,0-.333.174H6.9A2.4,2.4,0,0,1,6.1,7.913L4.571,6.565a1.774,1.774,0,0,0-.19-0.3,1.071,1.071,0,0,1,.048-0.522A1.374,1.374,0,0,1,5.048,5.13H5.667a5.662,5.662,0,0,1,1.524,1.3H7.238V6.391A11.886,11.886,0,0,0,8.9,4.87C10.271,3.622,11.595,2.294,13.1,1.174Z"/>
</svg>
