<svg xmlns="http://www.w3.org/2000/svg" width="24" height="24" viewBox="0 0 24 24">
  <defs>
    <style>
      .cls-1 {
        fill-rule: evenodd;
      }
    </style>
  </defs>
  <path id="Color_Fill_1" data-name="Color Fill 1" class="cls-1" d="M4.165,8a5.917,5.917,0,0,1,1.521.661C6.544,9.035,7.34,9.278,8.2,9.653a16.319,16.319,0,0,0,2.116.926V10.446a5.076,5.076,0,0,1-.793-1.322A11.164,11.164,0,0,1,8.2,6.942C5.91,7.771,4.882,4.28,6.612,3.174A2.18,2.18,0,0,1,9.785,4.5C10.024,5.4,9.444,5.857,9.322,6.413a5.093,5.093,0,0,1,.793,1.322,14.807,14.807,0,0,1,1.719,2.843,0.187,0.187,0,0,0,.066-0.066l2.975-6.876C13.107,2.516,14.768-.777,17.058.2a2.2,2.2,0,0,1,.4,3.636c-0.389.262-1.04,0.194-1.388,0.4a8.849,8.849,0,0,0-.926,2.182c-0.67,1.538-1.377,3.126-2.05,4.694h0.331a18.706,18.706,0,0,1,3.57-.727,2.094,2.094,0,0,1,4.1-.264,2.136,2.136,0,0,1-2.579,2.512,10.15,10.15,0,0,1-1.388-.992l-3.769.793V12.5h0.066a13,13,0,0,0,1.785,1.785l3.835,3.835c0.436,0.436,1.46,1.794,2.05,1.917a1.77,1.77,0,0,1,1.587,0,2.112,2.112,0,0,1,.859,3.174,2.283,2.283,0,0,1-2.909.4,2.242,2.242,0,0,1-.595-2.645l-7.6-7.537L11.5,20.1a2.025,2.025,0,0,1-.4,3.769,1.449,1.449,0,0,1-.793.132c-1.113-.259-2.476-1.619-1.587-3.107A2.912,2.912,0,0,1,9.521,20.1a1.541,1.541,0,0,0,.661-0.331,7.1,7.1,0,0,0,.264-1.851,25.713,25.713,0,0,0,.661-4.562H10.975a5.659,5.659,0,0,1-1.455.86c-0.454.279-.936,0.643-1.388,0.926s-1.167.332-1.19,1.058a1.574,1.574,0,0,1-.4,1.256,2.1,2.1,0,0,1-3.372,0,2.2,2.2,0,0,1,1.256-3.24c0.907-.242,1.375.339,1.917,0.463a7.906,7.906,0,0,1,1.455-.86c0.88-.547,1.757-1.185,2.711-1.653A0.238,0.238,0,0,0,10.38,12.1,7.652,7.652,0,0,0,8.4,11.24c-1.057-.461-2.137-0.908-3.24-1.388A6.3,6.3,0,0,0,3.57,9.19C2.441,10.877-.778,9.185.132,7.008A2.105,2.105,0,0,1,4.165,8ZM15.934,1.388c-0.142.153-.31,0.321-0.463,0.463V2.38a0.843,0.843,0,0,0,.661.463,0.7,0.7,0,0,0,.529-0.066,1.239,1.239,0,0,0,.331-0.86c-0.161-.165-0.308-0.362-0.463-0.529h-0.6ZM7.669,4.165a0.446,0.446,0,0,1-.264.066,1.1,1.1,0,0,0-.4.992,0.472,0.472,0,0,1,.132.264,1.757,1.757,0,0,0,.926.2,0.959,0.959,0,0,0,.4-0.661,0.412,0.412,0,0,0-.066-0.4A0.761,0.761,0,0,0,7.669,4.165ZM1.917,7.008a0.337,0.337,0,0,1-.2.066L1.455,7.4a0.876,0.876,0,0,0-.132.6,0.472,0.472,0,0,1,.132.264,1.311,1.311,0,0,0,.859.264,0.991,0.991,0,0,0,.529-0.992,4.206,4.206,0,0,1-.331-0.4A1.472,1.472,0,0,0,1.917,7.008ZM18.843,9.851a0.337,0.337,0,0,1-.2.066,1.172,1.172,0,0,0-.264,1.124,1.239,1.239,0,0,0,.86.331c0.188-.161.354-0.3,0.529-0.463a0.725,0.725,0,0,0-.066-0.6,1.111,1.111,0,0,0-.4-0.463H18.843Zm-13.95,5.62c-0.057.043-.208,0.088-0.264,0.132a0.524,0.524,0,0,0-.4.4c-0.313.454,0.208,0.8,0.4,0.992a3.307,3.307,0,0,0,.727-0.066,1.239,1.239,0,0,0,.331-0.86A1.612,1.612,0,0,0,4.893,15.471Zm5.421,5.686a1.093,1.093,0,0,0-.529.86,0.775,0.775,0,0,1,.132.331,1.179,1.179,0,0,0,.86.331,1.054,1.054,0,0,0,.463-0.463,0.7,0.7,0,0,0-.264-0.926A0.991,0.991,0,0,0,10.314,21.157Zm11.306,0a0.893,0.893,0,0,0-.463.661,0.7,0.7,0,0,0,.066.529,1.179,1.179,0,0,0,.86.331,1.054,1.054,0,0,0,.463-0.463,0.7,0.7,0,0,0-.265-0.926A0.991,0.991,0,0,0,21.62,21.157Z"/>
</svg>
