<svg xmlns="http://www.w3.org/2000/svg" width="24" height="24" viewBox="0 0 24 24">
  <defs>
    <style>
      .cls-1 {
        fill-rule: evenodd;
      }
    </style>
  </defs>
  <path id="Color_Fill_1" data-name="Color Fill 1" class="cls-1" d="M18.462,0c2.745-.028,4.331,1.063,5.135,2.615A3.768,3.768,0,0,1,23.712,5.7a8.869,8.869,0,0,1-2.6,2.568l-4.442,3.6a11.344,11.344,0,0,1-3.462,2.381,7.093,7.093,0,0,1-4.327-.187l0.058-.14,1.615-1.261a4.012,4.012,0,0,0,2.423-.42l4.961-4.062L20.25,6.3a6.27,6.27,0,0,0,1.1-.934,2.2,2.2,0,0,0-.75-3.035,3.889,3.889,0,0,0-3.519,0L8.769,9.105a2.783,2.783,0,0,0-.4,1.868L6.75,12.234a0.216,0.216,0,0,1-.115-0.047C5.486,11.04,6.3,8.7,7.1,7.8A12.428,12.428,0,0,1,8.6,6.584l3.231-2.615,2.654-2.148A9.716,9.716,0,0,1,15.923.7a7.177,7.177,0,0,1,1.5-.56Zm-6,9.479a6.786,6.786,0,0,1,2.712.467v0.093c-0.635.348-1.207,1.347-2.135,1.354a2.036,2.036,0,0,0-1.212.14,6.717,6.717,0,0,0-2.25,1.494L4.962,16.763a13.468,13.468,0,0,0-2.25,1.868,2.208,2.208,0,0,0,.635,3.082,4,4,0,0,0,3.519.047,12.478,12.478,0,0,0,1.615-1.307l3.4-2.755,2.25-1.821a6.742,6.742,0,0,0,1.154-.981,2.67,2.67,0,0,0,.346-1.774c0.589-.318,1.147-1.167,1.789-1.354v0.047a1.684,1.684,0,0,1,.346.747,3.743,3.743,0,0,1-.923,3.782l-6,4.809a12.265,12.265,0,0,1-3.519,2.521A6.964,6.964,0,0,1,2.308,23.3C0.68,22.381-.676,20.241.462,18.117c0.632-1.179,2.056-1.991,3.115-2.848l5.942-4.856a7.294,7.294,0,0,1,1.9-.794Z"/>
</svg>
